Coordinates
version=1
nRows=14
nColumns=24
inDegrees=yes

Units are S.I. units (second, meters, Newtons, ...)
Angles are in degrees.

endheader
time	pelvis_tilt	pelvis_list	pelvis_rotation	pelvis_tx	pelvis_ty	pelvis_tz	hip_flexion_r	hip_adduction_r	hip_rotation_r	knee_angle_r	ankle_angle_r	subtalar_angle_r	mtp_angle_r	hip_flexion_l	hip_adduction_l	hip_rotation_l	knee_angle_l	ankle_angle_l	subtalar_angle_l	mtp_angle_l	lumbar_extension	lumbar_bending	lumbar_rotation
      1.99500000	     23.86505871	     -4.65493018	      9.76072791	      0.15916658	      0.85764332	     -0.01044328	    -22.37403300	     13.20125710	    -23.79272784	     -4.58295136	     24.12749440	     16.08053746	     33.38964288	     -5.78129902	    -12.45239022	     -7.22343575	    -62.26790010	     19.30494980	     -2.72918284	     48.06857273	    -38.45727394	     10.11327685	     -8.85756885
      2.00000000	     23.85499929	     -4.48602651	      9.59859966	      0.16414654	      0.85808745	     -0.00994199	    -22.84027319	     13.06082781	    -23.61525360	     -4.44794357	     24.32172748	     16.13494306	     33.36343175	     -5.39118259	    -12.11398056	     -7.54366941	    -61.25044468	     19.74877609	     -2.25856461	     48.09150218	    -38.48920666	      9.86832043	     -8.72049510
      2.00500000	     23.85040175	     -4.31728896	      9.45658363	      0.16915136	      0.85849827	     -0.00948845	    -23.31575382	     12.92693637	    -23.43918902	     -4.30360200	     24.47954379	     16.17723302	     33.30943937	     -5.02384879	    -11.77367996	     -7.85070218	    -60.15471448	     20.19693226	     -1.73464736	     48.06601225	    -38.51788391	      9.63542744	     -8.59770527
      2.01000000	     23.83460525	     -4.14586029	      9.31101894	      0.17417770	      0.85887401	     -0.00905332	    -23.77947470	     12.78452697	    -23.23981755	     -4.16131142	     24.64614942	     16.17696476	     33.24364673	     -4.66918927	    -11.42027091	     -8.16491504	    -58.97588601	     20.61232424	     -1.25637066	     48.00248481	    -38.53179460	      9.39738776	     -8.48187213
      2.01500000	     23.83795496	     -3.97033867	      9.16343306	      0.17919579	      0.85923375	     -0.00863871	    -24.26571025	     12.63757427	    -22.99773430	     -4.01334472	     24.80541787	     16.13151665	     33.16195097	     -4.36314718	    -11.05849778	     -8.49094273	    -57.71019452	     21.00957639	     -0.80077298	     47.90606609	    -38.56797875	      9.15658828	     -8.36807599
      2.02000000	     23.84990836	     -3.79066810	      9.01498962	      0.18423823	      0.85956928	     -0.00823922	    -24.76878596	     12.48667379	    -22.72345820	     -3.85334654	     24.95496016	     16.04272067	     33.06499072	     -4.09398835	    -10.68868257	     -8.82503728	    -56.36524291	     21.38168731	     -0.38192612	     47.78016061	    -38.61081358	      8.91154720	     -8.25390941
      2.02500000	     23.85809330	     -3.61146409	      8.86548097	      0.18929277	      0.85987541	     -0.00784967	    -25.26771865	     12.33286674	    -22.41470378	     -3.69429050	     25.09165986	     15.91179701	     32.95198399	     -3.84764624	    -10.31235626	     -9.16103619	    -54.93735468	     21.72901292	     -0.00947186	     47.62147725	    -38.64638987	      8.66373235	     -8.14138590
      2.03000000	     23.87727658	     -3.43390585	      8.71318733	      0.19434330	      0.86014760	     -0.00750966	    -25.78031167	     12.17657689	    -22.09277511	     -3.52665605	     25.23611461	     15.74443384	     32.83841245	     -3.63767765	     -9.93181766	     -9.50792709	    -53.43761440	     22.05876101	      0.32794648	     47.45870275	    -38.69691629	      8.42547500	     -8.03348133
      2.03500000	     23.89830142	     -3.25350777	      8.55988039	      0.19939893	      0.86040085	     -0.00719015	    -26.29714265	     12.01432492	    -21.74731518	     -3.35483130	     25.36146438	     15.54800088	     32.71490737	     -3.45935062	     -9.53996403	     -9.85177431	    -51.85373436	     22.36701718	      0.63178174	     47.28068837	    -38.74744055	      8.18320184	     -7.92879028
      2.04000000	     23.92233184	     -3.07690640	      8.40593783	      0.20446884	      0.86062563	     -0.00690143	    -26.81776640	     11.85200895	    -21.39093032	     -3.18264765	     25.47916310	     15.33253512	     32.58645552	     -3.31238001	     -9.14752354	    -10.20225114	    -50.19362735	     22.65907530	      0.91380569	     47.09624857	    -38.79793314	      7.94679991	     -7.82592939
      2.04500000	     23.96556303	     -2.91553124	      8.24205243	      0.20954325	      0.86084076	     -0.00660442	    -27.36819197	     11.70244164	    -20.98367101	     -2.98672883	     25.49475883	     15.09852647	     32.38750767	     -3.21800950	     -8.77446860	    -10.58268873	    -48.45649083	     22.95878159	      1.19200190	     46.81193010	    -38.87016926	      7.71799169	     -7.72053279
      2.05000000	     23.98740901	     -2.73217377	      8.10094388	      0.21460412	      0.86098205	     -0.00640459	    -27.87225853	     11.52796181	    -20.67732249	     -2.84569914	     25.71076916	     14.86159519	     32.28431504	     -3.11705702	     -8.35821470	    -10.90698856	    -46.65717038	     23.20233637	      1.46048345	     46.65417740	    -38.92034888	      7.48713754	     -7.64521949
      2.05500000	     24.04104284	     -2.56240520	      7.93645403	      0.21966689	      0.86115597	     -0.00620334	    -28.42377256	     11.35680838	    -20.32816429	     -2.67245592	     25.79413108	     14.65179487	     32.15310693	     -3.09602481	     -7.95743137	    -11.27523639	    -44.76086583	     23.43878712	      1.73298458	     46.48363128	    -39.00799733	      7.26136377	     -7.55572060
      2.06000000	     24.08810345	     -2.39287304	      7.77403607	      0.22474117	      0.86128520	     -0.00602839	    -28.96550060	     11.18348487	    -20.00158612	     -2.50370339	     25.89907483	     14.43829465	     32.02607493	     -3.09853927	     -7.54968236	    -11.64251545	    -42.79161034	     23.66083227	      2.02739902	     46.32913255	    -39.08524938	      7.03516506	     -7.47922109
